<svg width="18" height="27" viewBox="0 0 18 27" fill="none" xmlns="http://www.w3.org/2000/svg">
<path d="M5.47143 18.489V18.0773C5.47143 16.5794 5.60297 15.4035 5.86605 14.5494C6.12914 13.6953 6.51093 13.015 7.01143 12.5084C7.51193 12.0018 8.12218 11.5273 8.84217 11.0848C9.6346 10.578 10.2992 10.0244 10.8361 9.42399C11.3729 8.82353 11.6413 8.0958 11.6413 7.24081C11.6413 6.62934 11.4984 6.10207 11.2124 5.659C10.9265 5.21592 10.5419 4.86988 10.0588 4.62086C9.57564 4.37184 9.03689 4.24733 8.44253 4.24733C7.87769 4.24733 7.34239 4.37032 6.83662 4.61629C6.33085 4.86227 5.91765 5.22665 5.59703 5.70946C5.27642 6.19226 5.09994 6.79025 5.0676 7.50344H4.95911e-05C0.0270004 5.8117 0.425498 4.41224 1.19554 3.30505C1.96559 2.19785 2.987 1.37022 4.25978 0.822129C5.53257 0.274043 6.93314 0 8.46151 0C10.1495 0 11.6385 0.280077 12.9285 0.840231C14.2185 1.40038 15.2294 2.20827 15.9613 3.2639C16.6931 4.31953 17.0591 5.58809 17.0591 7.06958C17.0591 8.56349 16.7058 9.80961 15.9993 10.8079C15.2927 11.8062 14.3395 12.6606 13.1395 13.371C12.4654 13.7774 11.908 14.1818 11.4673 14.5842C11.0265 14.9867 10.702 15.4577 10.4938 15.9975C10.2855 16.5373 10.1814 17.2305 10.1814 18.0773V18.489H5.47143ZM7.84664 26.8759C6.93092 26.8759 6.18149 26.6002 5.59836 26.0487C5.01522 25.4972 4.72366 24.7821 4.72366 23.9034C4.72366 23.0193 5.01522 22.3015 5.59836 21.75C6.18149 21.1986 6.93092 20.9228 7.84664 20.9228C8.76869 20.9228 9.51835 21.1986 10.0956 21.75C10.6729 22.3015 10.9615 23.0193 10.9615 23.9034C10.9615 24.7821 10.6729 25.4972 10.0956 26.0487C9.51835 26.6002 8.76869 26.8759 7.84664 26.8759Z" fill="#1E293B"/>
</svg>
